ffmpeg started on 2016-12-06 at 14:32:42
Report written to "Output/x264/results/ffmpeg/sintelmedium1000k.log"
Command line:
Tools/ffmpeg/ffmpeg -benchmark -y -i Input/y4m/sintel.y4m -c:v libx264 -preset medium -b:v 1000k -an Output/x264/encoded/sintelmedium1000k.mkv
ffmpeg version N-82227-gdb23fde Copyright (c) 2000-2016 the FFmpeg developers
  built with gcc 5.4.0 (Ubuntu 5.4.0-6ubuntu1~16.04.2) 20160609
  configuration: --prefix=/home/jaroslav/ffmpeg_build --pkg-config-flags=--static --extra-cflags=-I/home/jaroslav/ffmpeg_build/include --extra-ldflags=-L/home/jaroslav/ffmpeg_build/lib --bindir=/home/jaroslav/bin --enable-gpl --enable-libass --enable-libfdk-aac --enable-libfreetype --enable-libmp3lame --enable-libopus --enable-libtheora --enable-libvorbis --enable-libvpx --enable-libx264 --enable-libx265 --enable-nvenc --enable-libmfx --enable-libxvid --enable-libgsm --enable-libopencore-amrnb --enable-version3 --enable-nonfree
  libavutil      55. 35.100 / 55. 35.100
  libavcodec     57. 66.101 / 57. 66.101
  libavformat    57. 57.100 / 57. 57.100
  libavdevice    57.  2.100 / 57.  2.100
  libavfilter     6. 66.100 /  6. 66.100
  libswscale      4.  3.100 /  4.  3.100
  libswresample   2.  4.100 /  2.  4.100
  libpostproc    54.  2.100 / 54.  2.100
Input #0, yuv4mpegpipe, from 'Input/y4m/sintel.y4m':
  Duration: 00:00:20.83, start: 0.000000, bitrate: 2057307 kb/s
    Stream #0:0: Video: rawvideo (I420 / 0x30323449), yuv420p(progressive), 4096x1744, SAR 1:1 DAR 256:109, 24 fps, 24 tbr, 24 tbn, 24 tbc
[libx264 @ 0x34211c0] using SAR=1/1
[libx264 @ 0x34211c0] using cpu capabilities: MMX2 SSE2Fast SSSE3 SSE4.2 AVX FMA3 AVX2 LZCNT BMI2
[libx264 @ 0x34211c0] profile High, level 5.1
[libx264 @ 0x34211c0] 264 - core 148 - H.264/MPEG-4 AVC codec - Copyleft 2003-2016 - http://www.videolan.org/x264.html - options: cabac=1 ref=3 deblock=1:0:0 analyse=0x3:0x113 me=hex subme=7 psy=1 psy_rd=1.00:0.00 mixed_ref=1 me_range=16 chroma_me=1 trellis=1 8x8dct=1 cqm=0 deadzone=21,11 fast_pskip=1 chroma_qp_offset=-2 threads=6 lookahead_threads=1 sliced_threads=0 nr=0 decimate=1 interlaced=0 bluray_compat=0 constrained_intra=0 bframes=3 b_pyramid=2 b_adapt=1 b_bias=0 direct=1 weightb=1 open_gop=0 weightp=2 keyint=250 keyint_min=24 scenecut=40 intra_refresh=0 rc_lookahead=40 rc=abr mbtree=1 bitrate=1000 ratetol=1.0 qcomp=0.60 qpmin=0 qpmax=69 qpstep=4 ip_ratio=1.40 aq=1:1.00
Output #0, matroska, to 'Output/x264/encoded/sintelmedium1000k.mkv':
  Metadata:
    encoder         : Lavf57.57.100
    Stream #0:0: Video: h264 (libx264) (H264 / 0x34363248), yuv420p, 4096x1744 [SAR 1:1 DAR 256:109], q=-1--1, 1000 kb/s, 24 fps, 1k tbn, 24 tbc
    Metadata:
      encoder         : Lavc57.66.101 libx264
    Side data:
      cpb: bitrate max/min/avg: 0/0/1000000 buffer size: 0 vbv_delay: -1
Stream mapping:
  Stream #0:0 -> #0:0 (rawvideo (native) -> h264 (libx264))
Press [q] to stop, [?] for help
frame=    9 fps=0.0 q=0.0 size=       0kB time=00:00:00.00 bitrate=N/A speed=   0x    frame=   18 fps= 17 q=0.0 size=       0kB time=00:00:00.00 bitrate=N/A speed=   0x    frame=   24 fps= 14 q=0.0 size=       0kB time=00:00:00.00 bitrate=N/A speed=   0x    frame=   32 fps= 12 q=0.0 size=       0kB time=00:00:00.00 bitrate=N/A speed=   0x    frame=   41 fps= 13 q=0.0 size=       0kB time=00:00:00.00 bitrate=N/A speed=   0x    frame=   45 fps= 12 q=0.0 size=       0kB time=00:00:00.00 bitrate=N/A speed=   0x    frame=   47 fps=8.3 q=0.0 size=       0kB time=00:00:00.00 bitrate=N/A speed=   0x    frame=   48 fps=5.4 q=0.0 size=       0kB time=00:00:00.00 bitrate=N/A speed=   0x    frame=   49 fps=4.3 q=0.0 size=       0kB time=00:00:00.00 bitrate=N/A speed=   0x    frame=   57 fps=4.7 q=57.0 size=       1kB time=00:00:00.16 bitrate=  35.0kbits/s speed=0.0138x    frame=   62 fps=4.9 q=58.0 size=       1kB time=00:00:00.37 bitrate=  15.6kbits/s speed=0.0295x    frame=   68 fps=5.1 q=62.0 size=       1kB time=00:00:00.62 bitrate=   9.4kbits/s speed=0.0469x    frame=   75 fps=5.4 q=63.0 size=       1kB time=00:00:00.91 bitrate=   6.4kbits/s speed=0.0656x    frame=   84 fps=5.8 q=64.0 size=       1kB time=00:00:01.29 bitrate=   4.5kbits/s speed=0.0891x    frame=   90 fps=6.0 q=65.0 size=       1kB time=00:00:01.54 bitrate=   3.8kbits/s speed=0.102x    frame=   94 fps=6.0 q=66.0 size=       1kB time=00:00:01.70 bitrate=   3.4kbits/s speed=0.109x    frame=  101 fps=6.2 q=66.0 size=       1kB time=00:00:02.00 bitrate=   2.9kbits/s speed=0.123x    frame=  105 fps=6.2 q=66.0 size=       1kB time=00:00:02.16 bitrate=   2.7kbits/s speed=0.129x    frame=  110 fps=6.3 q=66.0 size=       1kB time=00:00:02.37 bitrate=   2.5kbits/s speed=0.135x    frame=  117 fps=6.4 q=67.0 size=       1kB time=00:00:02.66 bitrate=   2.2kbits/s speed=0.147x    frame=  123 fps=6.5 q=67.0 size=       1kB time=00:00:02.91 bitrate=   2.0kbits/s speed=0.155x    frame=  127 fps=6.5 q=67.0 size=       1kB time=00:00:03.08 bitrate=   1.9kbits/s speed=0.157x    frame=  130 fps=6.3 q=67.0 size=       1kB time=00:00:03.20 bitrate=   1.8kbits/s speed=0.156x    frame=  134 fps=6.3 q=68.0 size=       1kB time=00:00:03.37 bitrate=   1.7kbits/s speed=0.158x    frame=  140 fps=6.3 q=68.0 size=       1kB time=00:00:03.62 bitrate=   1.6kbits/s speed=0.164x    frame=  146 fps=6.5 q=68.0 size=       1kB time=00:00:03.87 bitrate=   1.5kbits/s speed=0.172x    frame=  152 fps=6.6 q=68.0 size=     675kB time=00:00:04.12 bitrate=1339.9kbits/s speed=0.178x    frame=  159 fps=6.6 q=68.0 size=     675kB time=00:00:04.41 bitrate=1251.3kbits/s speed=0.185x    frame=  163 fps=6.6 q=68.0 size=     675kB time=00:00:04.58 bitrate=1206.0kbits/s speed=0.185x    frame=  170 fps=6.7 q=68.0 size=     675kB time=00:00:04.87 bitrate=1133.8kbits/s speed=0.192x    frame=  176 fps=6.8 q=68.0 size=     675kB time=00:00:05.12 bitrate=1078.5kbits/s speed=0.198x    frame=  182 fps=6.7 q=69.0 size=     675kB time=00:00:05.37 bitrate=1028.3kbits/s speed=0.198x    frame=  189 fps=6.8 q=69.0 size=     675kB time=00:00:05.66 bitrate= 975.3kbits/s speed=0.205x    frame=  195 fps=6.9 q=69.0 size=     675kB time=00:00:05.91 bitrate= 934.1kbits/s speed=0.209x    frame=  198 fps=6.9 q=69.0 size=     675kB time=00:00:06.04 bitrate= 914.8kbits/s speed=0.21x    frame=  201 fps=6.9 q=69.0 size=     675kB time=00:00:06.16 bitrate= 896.3kbits/s speed=0.21x    frame=  207 fps=6.9 q=69.0 size=    1037kB time=00:00:06.41 bitrate=1324.1kbits/s speed=0.212x    frame=  208 fps=6.7 q=69.0 size=    1037kB time=00:00:06.45 bitrate=1315.7kbits/s speed=0.209x    frame=  212 fps=6.7 q=69.0 size=    1037kB time=00:00:06.62 bitrate=1282.6kbits/s speed=0.21x    frame=  218 fps=6.7 q=69.0 size=    1037kB time=00:00:06.87 bitrate=1235.9kbits/s speed=0.212x    frame=  223 fps=6.7 q=69.0 size=    1037kB time=00:00:07.08 bitrate=1199.6kbits/s speed=0.213x    frame=  227 fps=6.7 q=69.0 size=    1037kB time=00:00:07.25 bitrate=1172.0kbits/s speed=0.213x    frame=  233 fps=6.7 q=69.0 size=    1037kB time=00:00:07.50 bitrate=1132.9kbits/s speed=0.217x    frame=  241 fps=6.9 q=69.0 size=    1170kB time=00:00:07.83 bitrate=1223.5kbits/s speed=0.223x    frame=  245 fps=6.9 q=69.0 size=    1170kB time=00:00:08.00 bitrate=1198.0kbits/s speed=0.224x    frame=  254 fps=7.0 q=69.0 size=    1170kB time=00:00:08.37 bitrate=1144.4kbits/s speed=0.232x    frame=  258 fps=7.0 q=69.0 size=    1170kB time=00:00:08.54 bitrate=1122.0kbits/s speed=0.232x    frame=  270 fps=7.2 q=69.0 size=    1170kB time=00:00:09.04 bitrate=1060.0kbits/s speed=0.242x    frame=  279 fps=7.3 q=69.0 size=    1170kB time=00:00:09.41 bitrate=1017.8kbits/s speed=0.248x    frame=  288 fps=7.5 q=68.0 size=    1170kB time=00:00:09.79 bitrate= 978.8kbits/s speed=0.254x    frame=  296 fps=7.6 q=68.0 size=    1170kB time=00:00:10.12 bitrate= 946.6kbits/s speed=0.258x    frame=  305 fps=7.7 q=68.0 size=    1170kB time=00:00:10.50 bitrate= 912.8kbits/s speed=0.265x    frame=  312 fps=7.7 q=68.0 size=    1170kB time=00:00:10.79 bitrate= 888.1kbits/s speed=0.265x    frame=  321 fps=7.8 q=67.0 size=    1426kB time=00:00:11.16 bitrate=1046.2kbits/s speed=0.27x    frame=  330 fps=7.8 q=67.0 size=    1426kB time=00:00:11.54 bitrate=1012.2kbits/s speed=0.273x    frame=  333 fps=7.7 q=67.0 size=    1426kB time=00:00:11.66 bitrate=1001.3kbits/s speed=0.272x    frame=  338 fps=7.7 q=66.0 size=    1426kB time=00:00:11.87 bitrate= 983.8kbits/s speed=0.272x    frame=  346 fps=7.8 q=66.0 size=    1426kB time=00:00:12.20 bitrate= 957.0kbits/s speed=0.275x    frame=  353 fps=7.8 q=65.0 size=    1426kB time=00:00:12.50 bitrate= 934.6kbits/s speed=0.276x    frame=  359 fps=7.8 q=65.0 size=    1426kB time=00:00:12.75 bitrate= 916.3kbits/s speed=0.278x    frame=  361 fps=7.8 q=65.0 size=    1426kB time=00:00:12.83 bitrate= 910.4kbits/s speed=0.276x    frame=  368 fps=7.8 q=64.0 size=    1426kB time=00:00:13.12 bitrate= 890.1kbits/s speed=0.278x    frame=  370 fps=7.8 q=65.0 size=    1426kB time=00:00:13.20 bitrate= 884.5kbits/s speed=0.277x    frame=  381 fps=7.9 q=64.0 size=    1426kB time=00:00:13.66 bitrate= 854.8kbits/s speed=0.283x    frame=  391 fps=8.0 q=63.0 size=    1426kB time=00:00:14.08 bitrate= 829.6kbits/s speed=0.288x    frame=  397 fps=8.0 q=63.0 size=    1426kB time=00:00:14.33 bitrate= 815.1kbits/s speed=0.29x    frame=  405 fps=8.1 q=62.0 size=    1426kB time=00:00:14.66 bitrate= 796.5kbits/s speed=0.292x    frame=  411 fps=8.1 q=62.0 size=    1426kB time=00:00:14.91 bitrate= 783.2kbits/s speed=0.294x    frame=  419 fps=8.1 q=62.0 size=    1573kB time=00:00:15.25 bitrate= 845.2kbits/s speed=0.296x    frame=  429 fps=8.2 q=61.0 size=    1573kB time=00:00:15.66 bitrate= 822.7kbits/s speed=0.301x    frame=  439 fps=8.3 q=60.0 size=    1573kB time=00:00:16.08 bitrate= 801.4kbits/s speed=0.306x    frame=  447 fps=8.4 q=60.0 size=    1573kB time=00:00:16.41 bitrate= 785.1kbits/s speed=0.309x    frame=  456 fps=8.5 q=60.0 size=    1573kB time=00:00:16.79 bitrate= 767.6kbits/s speed=0.313x    frame=  465 fps=8.6 q=60.0 size=    1573kB time=00:00:17.16 bitrate= 750.8kbits/s speed=0.316x    frame=  474 fps=8.7 q=59.0 size=    1718kB time=00:00:17.54 bitrate= 802.2kbits/s speed=0.32x    frame=  483 fps=8.7 q=60.0 size=    1718kB time=00:00:17.91 bitrate= 785.4kbits/s speed=0.324x    frame=  493 fps=8.8 q=59.0 size=    1718kB time=00:00:18.33 bitrate= 767.6kbits/s speed=0.328x    frame=  500 fps=8.7 q=-1.0 Lsize=    1956kB time=00:00:20.70 bitrate= 773.8kbits/s speed=0.36x    
video:1952kB audio:0kB subtitle:0kB other streams:0kB global headers:0kB muxing overhead: 0.226575%
bench: utime=96.196s
bench: maxrss=1564344kB
[libx264 @ 0x34211c0] frame I:8     Avg QP:49.08  size:  9491
[libx264 @ 0x34211c0] frame P:269   Avg QP:50.92  size:  6233
[libx264 @ 0x34211c0] frame B:223   Avg QP:50.74  size:  1100
[libx264 @ 0x34211c0] consecutive B-frames: 37.0%  8.4%  6.6% 48.0%
[libx264 @ 0x34211c0] mb I  I16..4: 43.7% 56.3%  0.0%
[libx264 @ 0x34211c0] mb P  I16..4: 12.4%  6.5%  0.0%  P16..4:  7.3%  0.3%  1.6%  0.0%  0.0%    skip:71.8%
[libx264 @ 0x34211c0] mb B  I16..4:  0.2%  0.1%  0.0%  B16..8:  2.6%  0.0%  0.0%  direct: 0.0%  skip:97.0%  L0:44.8% L1:54.8% BI: 0.5%
[libx264 @ 0x34211c0] final ratefactor: 57.66
[libx264 @ 0x34211c0] 8x8 transform intra:37.5% inter:99.6%
[libx264 @ 0x34211c0] coded y,uvDC,uvAC intra: 1.0% 4.7% 0.0% inter: 0.1% 0.1% 0.0%
[libx264 @ 0x34211c0] i16 v,h,dc,p: 84% 13%  2%  1%
[libx264 @ 0x34211c0] i8 v,h,dc,ddl,ddr,vr,hd,vl,hu: 15%  7% 76%  0%  0%  0%  0%  0%  0%
[libx264 @ 0x34211c0] i4 v,h,dc,ddl,ddr,vr,hd,vl,hu: 38% 18% 19%  5%  4%  6%  4%  3%  2%
[libx264 @ 0x34211c0] i8c dc,h,v,p: 100%  0%  0%  0%
[libx264 @ 0x34211c0] Weighted P-Frames: Y:1.1% UV:0.7%
[libx264 @ 0x34211c0] ref P L0: 53.7%  0.5% 30.5% 15.2%  0.1%
[libx264 @ 0x34211c0] ref B L0: 73.3% 21.1%  5.6%
[libx264 @ 0x34211c0] ref B L1: 87.8% 12.2%
[libx264 @ 0x34211c0] kb/s:767.14
